<svg width="23" height="23" viewBox="0 0 23 23" fill="none" xmlns="http://www.w3.org/2000/svg">
<path d="M10.2469 22.573C15.9061 22.573 20.4938 18.1022 20.4938 12.5873C20.4938 7.07232 15.9061 2.60156 10.2469 2.60156C4.5877 2.60156 0 7.07232 0 12.5873C0 18.1022 4.5877 22.573 10.2469 22.573Z" fill="white"/>
<path d="M10.2469 22.0737C15.6231 22.0737 19.9815 17.8265 19.9815 12.5873C19.9815 7.34805 15.6231 3.10083 10.2469 3.10083C4.87064 3.10083 0.512329 7.34805 0.512329 12.5873C0.512329 17.8265 4.87064 22.0737 10.2469 22.0737Z" stroke="#00ADAA"/>
<path d="M4.09875 9.89111L9.83703 17.658L21.8731 1.83563" stroke="#00ADAA" stroke-width="2" stroke-linecap="round"/>
</svg>
